<svg width="227" height="60" viewBox="0 0 227 60" fill="none" xmlns="http://www.w3.org/2000/svg">
<path d="M66.5586 20.7969C67.6408 20.7969 68.6483 20.9835 69.5812 21.3939C70.5141 21.8044 71.3723 22.3641 72.044 23.0358C72.753 23.7448 73.3127 24.5658 73.7232 25.4987C74.1337 26.4689 74.3203 27.4764 74.3203 28.5585V36.0217H71.7455V28.5585C71.7455 27.8495 71.5962 27.1779 71.335 26.5435C71.0738 25.9091 70.7006 25.3494 70.2155 24.8643C69.7304 24.3792 69.208 24.006 68.5736 23.7448C67.9393 23.4836 67.2303 23.3343 66.5213 23.3343C65.8123 23.3343 65.1406 23.4836 64.5062 23.7448C63.8719 24.006 63.3121 24.3792 62.8643 24.8643C62.3792 25.3494 62.0061 25.9091 61.7449 26.5435C61.4837 27.1779 61.3344 27.8495 61.3344 28.5585V36.0217H58.7969V28.5585C58.7969 27.4764 58.9835 26.4689 59.394 25.4987C59.8045 24.5284 60.3642 23.7075 61.0732 23.0358C61.7822 22.3268 62.6031 21.7671 63.536 21.3939C64.4689 21.0208 65.4764 20.7969 66.5586 20.7969Z" fill="#05192F"/>
<path d="M84.8801 36.4325C83.7979 36.4325 82.7904 36.2459 81.8575 35.8355C80.9246 35.425 80.0663 34.8652 79.3947 34.1563C78.6857 33.4473 78.1259 32.6263 77.7155 31.6934C77.305 30.7605 77.1184 29.753 77.1184 28.6708C77.1184 27.5887 77.305 26.5812 77.7155 25.611C78.1259 24.6407 78.6857 23.8198 79.3947 23.1481C80.1037 22.4391 80.9246 21.9167 81.8575 21.5062C82.7904 21.0958 83.7979 20.9092 84.8801 20.9092C85.9622 20.9092 86.9697 21.0958 87.9026 21.5062C88.8355 21.9167 89.6565 22.4764 90.3655 23.1481C91.0745 23.8571 91.5969 24.6781 92.0074 25.611C92.4178 26.5812 92.6044 27.5887 92.6044 28.6708V29.1186C92.6044 29.2679 92.5671 29.5291 92.5298 29.9396H79.7678C79.9171 30.4993 80.141 31.059 80.4395 31.5068C80.7753 31.9919 81.1485 32.4024 81.559 32.7756C82.0068 33.1487 82.4919 33.4099 83.0516 33.5965C83.6113 33.7831 84.1711 33.895 84.8054 33.895C85.2905 33.895 85.7756 33.7831 86.2234 33.5219C86.7085 33.2607 87.1563 32.9248 87.6041 32.5144L89.3953 34.3055C88.7236 34.9399 88.0146 35.4623 87.231 35.8355C86.522 36.2459 85.701 36.4325 84.8801 36.4325ZM89.9177 27.3648C89.7684 26.8051 89.5072 26.2826 89.2087 25.7975C88.9102 25.3124 88.537 24.902 88.0892 24.5288C87.6414 24.193 87.1563 23.8944 86.5966 23.7079C86.0369 23.5213 85.4771 23.4093 84.8428 23.4093C84.2084 23.4093 83.6487 23.5213 83.0889 23.7079C82.5292 23.8944 82.0441 24.193 81.5963 24.5288C81.1485 24.8646 80.7753 25.3124 80.4768 25.7975C80.141 26.2826 79.9171 26.8051 79.8051 27.3648H89.9177Z" fill="#05192F"/>
<path d="M93.8354 36.0594L98.2013 28.5962C97.8655 28.0365 97.4923 27.4394 97.1565 26.8051C96.7833 26.1707 96.4102 25.499 96.037 24.8647C95.6639 24.193 95.2534 23.5586 94.9175 22.9242C94.5444 22.2899 94.2085 21.6928 93.8727 21.1704H96.7833L99.6566 26.0961C100.104 25.3125 100.59 24.4542 101.075 23.5959C101.56 22.7377 102.045 21.9167 102.493 21.1704H105.403L101.112 28.6335C101.448 29.1933 101.784 29.8277 102.157 30.462C102.53 31.0964 102.903 31.7308 103.276 32.4024C103.649 33.0741 104.023 33.7085 104.396 34.3429C104.769 34.9772 105.105 35.5743 105.403 36.0967H102.455L99.6193 31.171C99.1715 31.9546 98.6864 32.8129 98.164 33.6712C97.6416 34.5294 97.1938 35.3504 96.746 36.0967H93.8354V36.0594Z" fill="#05192F"/>
<path d="M50.1773 16.8789C50.1773 16.543 49.8788 16.2818 49.5429 16.2818H48.4235C48.0877 16.2818 47.8265 16.5057 47.7892 16.8042C47.6772 17.6998 47.416 19.491 47.3787 19.6775C47.1175 20.8716 46.707 22.103 46.0354 23.1479C44.5055 25.5734 41.483 26.469 38.7963 25.0137C38.6098 24.9017 38.4232 24.7898 38.2366 24.6778C36.4828 23.4091 35.438 21.5433 34.244 19.8641C33.1992 18.4088 31.8932 16.9535 30.1394 16.3937C28.1617 15.7221 25.9228 16.2818 24.3183 17.4759C22.7138 18.7073 21.7063 20.4985 21.2212 22.3643C20.6615 24.6032 20.7361 26.9168 20.7361 29.2303V41.5818C20.7361 41.9177 21.0346 42.1789 21.3704 42.1789H22.4899C22.8257 42.1789 23.0869 41.955 23.1242 41.6565C23.2362 40.7609 23.4974 38.9697 23.5347 38.7832C23.7959 37.5891 24.2064 36.3576 24.878 35.3128C26.4079 32.8873 29.4304 31.9917 32.117 33.447C32.3036 33.559 32.4902 33.6709 32.6768 33.7829C34.4305 35.0516 35.4754 36.9174 36.6694 38.5966C37.7142 40.0519 39.0202 41.5072 40.774 42.0669C42.7144 42.7013 44.9532 42.1416 46.5578 40.9475C48.1623 39.7161 49.1698 37.9249 49.6549 36.0591C50.2519 33.8202 50.1773 31.5066 50.14 29.2303V16.8789H50.1773Z" fill="#2E5E92"/>
<path d="M113.388 23.7452V21.2077H110.03V17.5508H107.455V32.1412C107.455 32.701 107.567 33.2607 107.791 33.7458C108.015 34.2309 108.313 34.6787 108.687 35.0518C109.06 35.425 109.508 35.7235 110.03 35.9474C110.515 36.1713 111.037 36.2459 111.56 36.2833H113.314V33.7085H111.56C111.149 33.6712 110.776 33.5592 110.515 33.2607C110.217 32.9622 110.067 32.589 110.067 32.1412V23.7452H113.388Z" fill="#05192F"/>
<path d="M123.202 23.409C122.12 23.409 121.486 23.6703 121.187 23.8195C120.217 24.23 119.769 24.7151 119.508 24.939C118.799 25.648 118.538 26.2824 118.388 26.6182C117.978 27.5884 117.978 28.2974 117.978 28.6332C117.978 29.7154 118.239 30.3498 118.388 30.6483C118.799 31.6185 119.284 32.0663 119.508 32.2902C120.217 32.9992 120.851 33.2604 121.187 33.4097C122.157 33.8201 122.866 33.8201 123.202 33.8201C124.284 33.8201 124.919 33.5589 125.217 33.4097C126.187 32.9992 126.635 32.5141 126.896 32.2902C127.605 31.5812 127.867 30.9468 128.016 30.6483C128.426 29.6781 128.426 28.9691 128.426 28.6332C128.426 27.5511 128.165 26.9167 128.016 26.6182C127.605 25.648 127.12 25.2002 126.896 24.939C126.187 24.23 125.553 23.9688 125.217 23.8195C124.284 23.409 123.575 23.409 123.202 23.409ZM123.202 20.8716C124.807 20.8716 125.777 21.2821 126.225 21.4686C127.643 22.0657 128.352 22.7747 128.688 23.1105C129.732 24.1554 130.143 25.1256 130.367 25.5734C130.964 26.9914 130.964 28.0735 130.964 28.6332C130.964 30.2378 130.553 31.1707 130.367 31.6558C129.77 33.0738 129.061 33.7828 128.688 34.1187C127.643 35.1635 126.673 35.574 126.225 35.7979C124.807 36.3949 123.725 36.3949 123.202 36.3949C121.672 36.3949 120.777 36.0591 120.366 35.8725C119.023 35.3501 118.351 34.7157 117.978 34.3799V42.9998H115.403V28.6332C115.403 27.0287 115.814 26.0585 116 25.5734C116.597 24.1554 117.306 23.4464 117.679 23.1105C118.724 22.0657 119.695 21.6552 120.142 21.4686C121.598 20.8716 122.68 20.8716 123.202 20.8716Z" fill="#05192F"/>
<path d="M141.337 23.3345C140.255 23.3345 139.621 23.5958 139.322 23.745C138.352 24.1555 137.904 24.6406 137.68 24.8645C136.971 25.5735 136.71 26.2079 136.561 26.5437C136.15 27.5139 136.15 28.2229 136.15 28.5587C136.15 29.6409 136.411 30.2753 136.561 30.5738C136.971 31.544 137.456 31.9918 137.68 32.2157C138.389 32.9247 139.023 33.1859 139.322 33.3352C140.292 33.7456 141.001 33.7456 141.337 33.7456C142.457 33.7456 143.091 33.4844 143.389 33.3352C144.36 32.9247 144.807 32.4396 145.031 32.2157C145.74 31.5067 146.002 30.8723 146.151 30.5738C146.561 29.6036 146.561 28.8946 146.561 28.5587C146.561 27.4766 146.3 26.8422 146.151 26.5437C145.74 25.5735 145.293 25.1257 145.031 24.8645C144.322 24.1555 143.688 23.8943 143.389 23.745C142.419 23.3345 141.673 23.3345 141.337 23.3345ZM141.337 20.7598C142.942 20.7598 143.912 21.1702 144.397 21.3568C145.815 21.9539 146.524 22.6629 146.897 23.036C147.942 24.0809 148.352 25.0511 148.576 25.4989C149.173 26.9169 149.173 27.999 149.173 28.5214V35.9846H146.561V34.3054C145.516 35.2383 144.621 35.5741 144.173 35.7607C142.83 36.2831 141.822 36.2831 141.337 36.2831C139.732 36.2831 138.8 35.8726 138.314 35.686C136.896 35.089 136.187 34.38 135.852 34.0442C134.807 32.9993 134.396 32.0664 134.172 31.5813C133.575 30.1633 133.575 29.0812 133.575 28.5587C133.575 26.9542 133.986 25.984 134.172 25.5362C134.769 24.1182 135.478 23.4092 135.852 23.0733C136.896 22.0285 137.867 21.618 138.314 21.3941C139.695 20.7598 140.777 20.7598 141.337 20.7598Z" fill="#05192F"/>
<path d="M152.121 17.5508H154.695V21.2077H159.92V23.7452H154.695V32.1412C154.695 32.8129 154.994 33.1114 155.143 33.2607C155.591 33.7085 156.076 33.7085 156.3 33.7085C156.972 33.7085 157.308 33.298 157.457 33.0741C157.905 32.4397 157.905 31.8427 157.905 31.5442H160.442C160.442 32.5144 160.218 33.1114 160.106 33.3726C159.77 34.2309 159.397 34.6414 159.211 34.8653C158.651 35.4996 158.166 35.7608 157.905 35.8728C157.158 36.2459 156.561 36.2459 156.263 36.2459C155.404 36.2459 154.882 36.022 154.621 35.9101C153.874 35.5743 153.464 35.2011 153.277 35.0145C152.718 34.4548 152.494 33.9324 152.382 33.7085C152.046 32.9622 152.046 32.4024 152.046 32.1039V17.5508H152.121Z" fill="#05192F"/>
<path d="M165.181 36.0588H162.606V28.5956C162.606 26.9911 163.054 26.0209 163.278 25.5358C163.949 24.1178 164.696 23.4088 165.069 23.0729C166.188 22.0281 167.196 21.6176 167.718 21.431C169.211 20.834 170.368 20.834 170.965 20.834V23.4088C169.771 23.4088 169.062 23.67 168.726 23.8192C167.681 24.2297 167.159 24.7148 166.897 24.9387C166.114 25.6477 165.815 26.2821 165.666 26.6179C165.218 27.5881 165.218 28.2971 165.218 28.633V36.0588H165.181Z" fill="#05192F"/>
<path d="M181.189 23.3717C180.107 23.3717 179.472 23.6329 179.174 23.7821C178.204 24.1926 177.756 24.6777 177.495 24.9016C176.786 25.6106 176.525 26.245 176.375 26.5808C175.965 27.551 175.965 28.26 175.965 28.5959C175.965 29.678 176.226 30.3124 176.375 30.6109C176.786 31.5811 177.271 32.0289 177.495 32.2528C178.204 32.9618 178.838 33.223 179.174 33.3723C180.144 33.7827 180.853 33.7827 181.189 33.7827C182.271 33.7827 182.905 33.5215 183.204 33.3723C184.174 32.9618 184.622 32.4767 184.883 32.2528C185.592 31.5438 185.853 30.9094 186.003 30.6109C186.413 29.6407 186.413 28.9317 186.413 28.5959C186.413 27.5137 186.152 26.8793 186.003 26.5808C185.592 25.6106 185.107 25.1628 184.883 24.9016C184.174 24.1926 183.54 23.9314 183.204 23.7821C182.234 23.3717 181.525 23.3717 181.189 23.3717ZM181.189 20.7969C182.794 20.7969 183.764 21.2073 184.212 21.3939C185.63 21.991 186.339 22.7 186.674 23.0358C187.719 24.0807 188.13 25.0509 188.354 25.4987C188.951 26.9166 188.951 27.9988 188.951 28.5585C188.951 30.1631 188.54 31.1333 188.354 31.5811C187.757 32.9991 187.048 33.7081 186.674 34.0439C185.63 35.0888 184.659 35.4993 184.212 35.6858C182.794 36.2829 181.711 36.2829 181.189 36.2829C179.584 36.2829 178.651 35.8724 178.166 35.6858C176.748 35.0888 176.039 34.3798 175.704 34.0439C174.659 32.9991 174.248 32.0662 174.024 31.5811C173.427 30.1631 173.427 29.081 173.427 28.5585C173.427 26.954 173.838 25.9838 174.024 25.4987C174.621 24.0807 175.33 23.3717 175.704 23.0358C176.748 21.991 177.719 21.5805 178.166 21.3939C179.547 20.7969 180.629 20.7969 181.189 20.7969Z" fill="#05192F"/>
<path d="M199.51 20.7969C201.115 20.7969 202.085 21.2073 202.533 21.3939C203.951 21.991 204.66 22.7 204.996 23.0358C206.041 24.0807 206.451 25.0509 206.675 25.4987C207.272 26.9166 207.272 27.9988 207.272 28.5585V36.0217H204.697V28.5585C204.697 27.4764 204.436 26.842 204.287 26.5435C203.876 25.5733 203.429 25.1255 203.167 24.8643C202.458 24.1553 201.824 23.8941 201.525 23.7448C200.555 23.3343 199.846 23.3343 199.473 23.3343C198.391 23.3343 197.757 23.5956 197.458 23.7448C196.488 24.1553 196.04 24.6404 195.816 24.8643C195.107 25.5733 194.846 26.2076 194.697 26.5435C194.286 27.5137 194.286 28.2227 194.286 28.5585V36.0217H191.749V28.5585C191.749 26.954 192.159 25.9838 192.346 25.4987C192.943 24.0807 193.652 23.3717 194.025 23.0358C195.07 21.991 196.04 21.5805 196.488 21.3939C197.906 20.7969 198.988 20.7969 199.51 20.7969Z" fill="#05192F"/>
</svg>
