<svg width="156" height="60" viewBox="0 0 156 60" fill="none" xmlns="http://www.w3.org/2000/svg">
<path d="M56.3204 24.4645H65.5492L64.1269 27.307H53.4838V14.5039H56.3204V24.4645Z" fill="black"/>
<path d="M80.4591 14.5039L79.0368 17.3464H69.0969V19.4763H79.0368L77.6146 22.3188H69.0969V24.4486H79.7401V27.2911H66.2603V14.5039H80.4591Z" fill="black"/>
<path d="M81.0201 14.5039H84.1569L87.9101 22.5721L91.6632 14.5039H94.8001L87.9101 29.3102L81.0201 14.5039Z" fill="black"/>
<path d="M110.271 14.5039L108.849 17.3464H98.9088V19.4763H108.849L107.426 22.3188H98.9088V24.4486H109.552V27.2911H96.0643V14.5039H110.271Z" fill="black"/>
<path d="M113.819 24.4645H123.047L121.625 27.307H110.982V14.5039H113.819V24.4645Z" fill="black"/>
<path d="M56.3204 38.0041V42.2718L53.4838 43.697V30.1814H56.3204V35.1616H64.1269V30.894L66.9635 29.4688V42.9844H64.1269V38.0041H56.3204V38.0041Z" fill="black"/>
<path d="M82.5846 30.1812L81.1623 33.0236H71.2303V35.1535H81.1702L79.748 37.996H71.2303V40.1259H81.8734V42.9684H68.3937V30.1812H82.5846Z" fill="black"/>
<path d="M86.1323 35.1614V43.6968L83.2957 42.2716V30.1812H93.2356C95.5981 30.1812 96.7833 31.3688 96.7833 33.7362V34.4488C96.7833 36.3333 96.0406 37.4655 94.5472 37.8535L97.4944 42.9842H94.2233L91.363 38.0039H87.5545L86.1323 35.1614ZM86.1323 35.1614H93.2277C93.7018 35.1614 93.9388 34.9239 93.9388 34.4488V33.7362C93.9388 33.2612 93.7018 33.0236 93.2277 33.0236H86.1323V35.1614Z" fill="black"/>
<path d="M101.753 30.1812H108.138C110.5 30.1812 111.685 31.3688 111.685 33.7362V39.4291C111.685 41.7966 110.5 42.9842 108.138 42.9842H101.753C99.3907 42.9842 98.2055 41.7966 98.2055 39.4291V33.7362C98.1976 31.3688 99.3828 30.1812 101.753 30.1812ZM108.138 33.0236H101.753C101.279 33.0236 101.042 33.2612 101.042 33.7362V39.4291C101.042 39.9042 101.279 40.1417 101.753 40.1417H108.138C108.612 40.1417 108.849 39.9042 108.849 39.4291V33.7362C108.849 33.2612 108.612 33.0236 108.138 33.0236Z" fill="black"/>
<path d="M127.306 30.1812L125.884 33.0236H115.944V35.1535H125.884L124.462 37.996H115.944V40.1259H126.587V42.9684H113.1V30.1812H127.306Z" fill="black"/>
<path d="M131.565 30.1812H142.208L140.786 33.0236H131.557C131.083 33.0236 130.846 33.2612 130.846 33.7362V34.4488C130.846 34.9239 131.083 35.1614 131.557 35.1614H137.941C140.304 35.1614 141.489 36.3491 141.489 38.7165V39.4291C141.489 41.7966 140.304 42.9842 137.941 42.9842H127.298L128.721 40.1417H137.949C138.423 40.1417 138.661 39.9042 138.661 39.4291V38.7165C138.661 38.2415 138.423 38.0039 137.949 38.0039H131.565C129.203 38.0039 128.017 36.8163 128.017 34.4488V33.7362C128.009 31.3688 129.195 30.1812 131.565 30.1812Z" fill="black"/>
<path d="M20.2427 14.4878L14.8539 9.08789V20.3628C14.8539 20.7587 14.6485 21.1308 14.3088 21.3367L12.7917 22.6669L14.3088 23.9971C14.6485 24.2029 14.8539 24.5751 14.8539 24.971V33.0709L31.0202 49.2627V41.63L20.2427 30.8301V14.4878Z" fill="black"/>
<path d="M41.45 9.42044L36.4089 14.472V19.6819H31.0201V14.4878H25.6314V28.724L31.0201 34.1239V26.4833L29.4715 25.0897H36.4089V43.8707L41.7976 38.4629V24.971C41.7976 24.5751 42.0031 24.203 42.3428 23.9971L43.8599 22.6669L42.3428 21.3367C42.0031 21.1309 41.7976 20.7587 41.7976 20.3628V9.08789L41.45 9.42044Z" fill="black"/>
</svg>
