<svg width="227" height="60" viewBox="0 0 227 60" fill="none" xmlns="http://www.w3.org/2000/svg">
<path d="M41.219 14H8V46H41.219V14Z" fill="#5F50FF"/>
<path d="M16.4906 39.0239V31.5356H22.9792V28.3847H16.4906V23.2827H23.5983V20H13.1523V39.0239H16.4906ZM32.7289 39.0239V23.2827H37.3494V20H24.7811V23.2827H29.3905V39.0239H32.7289Z" fill="white"/>
<path d="M51.2598 39.6651V32.0563H57.596V28.8547H51.2598V23.6705H58.2004V20.3349H48V39.6651H51.2598ZM67.1596 20C62.5397 20 59.6469 23.8446 59.6469 30.0067C59.6469 36.1554 62.5397 40 67.1596 40C71.7687 40 74.6723 36.1554 74.6723 30.0067C74.6723 23.8446 71.7687 20 67.1596 20ZM67.1596 23.3758C69.707 23.3758 71.3369 25.9478 71.3369 30.0067C71.3369 34.0523 69.707 36.6108 67.1596 36.6108C64.6014 36.6108 62.9714 34.0523 62.9714 30.0067C62.9714 25.9478 64.6121 23.3758 67.1596 23.3758ZM80.037 20.3349H76.7771V32.8332C76.7771 37.0931 79.3137 40 83.3075 40C87.2906 40 89.8272 37.0931 89.8272 32.8332V20.3349H86.5674V32.4314C86.5674 34.9096 85.3908 36.5305 83.3075 36.5305C81.2135 36.5305 80.037 34.9096 80.037 32.4314V20.3349ZM95.5479 39.6651V27.006H95.645L102.931 39.6651H105.63V20.3349H102.511V32.9269H102.424L95.1484 20.3349H92.4286V39.6651H95.5479ZM108.231 20.3349V39.6651H114.179C118.853 39.6651 121.605 36.0617 121.605 29.9263C121.605 23.791 118.853 20.3349 114.179 20.3349H108.231ZM111.491 23.6705H113.79C116.661 23.6705 118.28 25.8942 118.28 29.9397C118.28 34.1192 116.704 36.3161 113.79 36.3161H111.491V23.6705ZM134.029 36.3161H126.97V31.4401H133.63V28.3322H126.97V23.6705H134.029V20.3349H123.71V39.6651H134.029V36.3161ZM139.642 23.4963H142.417C144.035 23.4963 145.05 24.7019 145.05 26.5774C145.05 28.493 144.089 29.6584 142.449 29.6584H139.642V23.4963ZM139.642 32.592H142.254L145.158 39.6651H148.849L145.568 31.9893C147.36 31.1185 148.396 28.9752 148.396 26.4969C148.396 22.6792 146.345 20.3349 142.762 20.3349H136.382V39.6651H139.642V32.592ZM156.643 39.6651V22.505H161.554V20.3349H149.788V22.505H154.7V39.6651H156.643ZM173.255 37.495H165.548V30.8506H172.855V28.7073H165.548V22.505H173.255V20.3349H163.605V39.6651H173.255V37.495ZM185.949 39.6651H187.989L182.247 20.3349H180.325L174.583 39.6651H176.623L178.188 34.1326H184.384L185.949 39.6651ZM181.253 23.2686H181.318L183.811 32.083H178.76L181.253 23.2686ZM205.119 39.6651V20.3349H202.863L197.487 36.4635H197.401L192.026 20.3349H189.77V39.6651H191.583V24.7689H191.659L196.624 39.5312H198.265L203.23 24.7689H203.306V39.6651H205.119ZM207.397 34.347C207.58 37.7629 209.869 39.9866 213.172 39.9866C216.755 39.9866 219 37.7763 219 34.2398C219 31.4668 217.694 29.9263 214.467 28.9217L212.837 28.3858C210.721 27.7026 209.857 26.8318 209.857 25.3717C209.857 23.4829 211.261 22.1835 213.279 22.1835C215.309 22.1835 216.658 23.4561 216.83 25.5325H218.773C218.687 22.2907 216.442 20.0134 213.344 20.0134C210.106 20.0134 207.839 22.2639 207.839 25.4789C207.839 28.1045 209.113 29.6718 211.984 30.5827L213.981 31.2257C216.075 31.8955 216.993 32.9002 216.993 34.5345C216.993 36.4367 215.46 37.8165 213.355 37.8165C211.132 37.8165 209.534 36.4367 209.351 34.347H207.397Z" fill="#060323"/>
</svg>
