<svg width="227" height="60" viewBox="0 0 227 60" fill="none" xmlns="http://www.w3.org/2000/svg">
<g clip-path="url(#clip0_149_248)">
<path fill-rule="evenodd" clip-rule="evenodd" d="M17.9113 14.6426L10.6715 16.5427C8.87987 17.0134 7.81547 18.8188 8.29633 20.5725L15.1021 45.4317C15.5566 47.0966 17.2398 48.1186 18.9405 47.8198C17.3453 47.1542 16.2281 45.6041 16.2281 43.8017V18.0668C16.2252 16.6776 16.8849 15.4434 17.9113 14.6426Z" fill="#00A86B"/>
<path fill-rule="evenodd" clip-rule="evenodd" d="M21.5326 13.6951H31.7193C31.0097 12.3547 29.4174 11.6257 27.8663 12.0333L21.5326 13.6951Z" fill="#00A86B"/>
<path fill-rule="evenodd" clip-rule="evenodd" d="M38.4899 14.7715H20.6881C18.8319 14.7715 17.3277 16.2468 17.3277 18.0608V43.7955C17.3277 45.6126 18.8349 47.0847 20.6881 47.0847H38.4899C40.3459 47.0847 41.8502 45.6094 41.8502 43.7955V18.0608C41.8502 16.2468 40.3459 14.7715 38.4899 14.7715ZM28.5436 37.2083H25.3562C22.987 37.2083 21.2716 35.0212 21.2716 31.4563C21.2716 27.8915 22.9841 25.7215 25.368 25.7215H28.5436V29.0223H26.5937V28.3048H25.3562C23.9722 28.3048 23.2685 29.6825 23.2685 31.4563C23.2685 33.1612 24.0396 34.6251 25.368 34.6251H26.5937V33.9075H28.5436V37.2083ZM32.5784 30.1101C33.071 30.1101 33.4698 30.7158 33.4698 31.4649C33.4698 32.214 33.071 32.8197 32.5784 32.8197H26.5995C26.1069 32.8197 25.7081 32.214 25.7081 31.4649C25.7081 30.7158 26.1069 30.1101 26.5995 30.1101H32.5784ZM33.8246 37.2083H30.6373V33.9075H32.5872V34.6251H33.8129C35.1412 34.6251 35.9124 33.1612 35.9124 31.4563C35.9124 29.6825 35.2086 28.3048 33.8246 28.3048H32.5872V29.0223H30.6373V25.7215H33.8129C36.1939 25.7215 37.9093 27.8915 37.9093 31.4563C37.9064 35.0212 36.1939 37.2083 33.8246 37.2083Z" fill="#00A86B"/>
<path d="M60.0333 36.848C64.4992 36.848 67.7247 34.193 67.7247 29.8646C67.7247 25.5363 64.4992 22.9014 60.013 22.9014H54.031V36.8509H60.0333V36.848ZM60.013 33.7108H57.7051V26.0357H60.0333C62.64 26.0357 63.9657 27.7091 63.9657 29.8618C63.9657 31.9341 62.5113 33.7108 60.013 33.7108Z" fill="black"/>
<path d="M81.826 36.848V33.7108H75.0526V31.3486H81.6765V28.2114H75.0526V26.0357H81.826V22.9014H71.3785V36.848H81.826Z" fill="black"/>
<path d="M91.0744 37.1001C94.898 37.1001 97.0122 35.2402 97.0122 32.4359C97.0122 27.2494 88.9574 28.5467 88.9574 26.8303C88.9574 26.2247 89.4264 25.8688 90.4967 25.8688C91.9072 25.8688 93.4672 26.351 94.6633 27.3326L96.6719 24.6346C95.1562 23.3601 93.1679 22.6914 90.8836 22.6914C87.2302 22.6914 85.2216 24.781 85.2216 27.126C85.2216 32.502 93.2763 30.975 93.2763 32.8148C93.2763 33.5037 92.5081 33.9227 91.2677 33.9227C89.3034 33.9227 87.7227 33.0875 86.6963 32.0829L84.7522 34.8843C86.1834 36.1988 88.1921 37.1001 91.0744 37.1001Z" fill="black"/>
<path d="M107.035 36.848V26.0357H111.008V22.9014H99.3639V26.0357H103.36V36.848H107.035Z" fill="black"/>
<path d="M118.251 36.848V22.9014H114.577V36.848H118.251Z" fill="black"/>
<path d="M135.876 36.848V22.9014H132.179V30.5736L126.411 22.9014H122.631V36.848H126.305V28.7768L132.331 36.848H135.876Z" fill="black"/>
<path d="M147.82 36.848V31.2223L153.203 22.9014H149.036L145.981 28.0449L142.885 22.9014H138.738L144.145 31.2223V36.848H147.82Z" fill="black"/>
<path d="M161.32 36.848C165.762 36.848 168.627 33.8572 168.627 29.8847C168.627 25.9324 165.765 22.9014 161.32 22.9014H156.449V36.8509H161.32V36.848ZM161.32 35.3009H158.223V24.4485H161.322C164.847 24.4485 166.791 26.8738 166.791 29.8847C166.791 32.8756 164.783 35.3009 161.32 35.3009Z" fill="black"/>
<path d="M183.561 36.848L179.714 31.1591C181.658 30.9927 183.432 29.6121 183.432 27.1034C183.432 24.5317 181.552 22.9014 178.946 22.9014H173.219V36.8509H174.993V31.3084H177.855L181.464 36.8509H183.561V36.848ZM178.732 29.7814H174.993V24.4485H178.732C180.42 24.4485 181.593 25.5162 181.593 27.1034C181.596 28.6706 180.42 29.7814 178.732 29.7814Z" fill="black"/>
<path d="M200.245 36.8479L194.519 22.8984H192.32L186.572 36.8479H188.601L189.862 33.7308H196.955L198.216 36.8479H200.245ZM196.442 32.2067H190.396L193.407 24.678L196.442 32.2067Z" fill="black"/>
<path d="M215.736 36.848L219.815 22.9014H217.83L214.687 34.526L211.42 22.9014H209.945L206.676 34.526L203.515 22.9014H201.55L205.609 36.848H207.532L210.673 25.5966L213.813 36.848H215.736Z" fill="black"/>
</g>
<defs>
<clipPath id="clip0_149_248">
<rect width="227" height="60" fill="white"/>
</clipPath>
</defs>
</svg>
