<svg width="227" height="60" viewBox="0 0 227 60" fill="none" xmlns="http://www.w3.org/2000/svg">
<g clip-path="url(#clip0_149_264)">
<path d="M40 13H7V46H40V13Z" fill="#E7B400"/>
<path d="M16.0627 39H12.8711V19.9761H22.858V23.2588H16.0627V28.3608H22.2662V31.5117H16.0627V39ZM24.7498 19.9761H30.9534C34.0815 19.9761 36.2375 22.5732 36.2375 26.4888C36.2375 30.3911 34.0075 33.0015 30.7948 33.0015H27.9414V39H24.7498V19.9761ZM27.9414 23.127V29.8901H30.0973C31.9256 29.8901 32.993 28.6772 32.993 26.502C32.993 24.3398 31.9361 23.127 30.1079 23.127H27.9414Z" fill="#09112F"/>
<path d="M47.6897 39H44.3799V19.2715H54.7367V22.6758H47.6897V27.9668H54.123V31.2344H47.6897V39ZM63.8333 18.9297C68.513 18.9297 71.4612 22.8535 71.4612 29.1426C71.4612 35.418 68.513 39.3418 63.8333 39.3418C59.1425 39.3418 56.2054 35.418 56.2054 29.1426C56.2054 22.8535 59.1425 18.9297 63.8333 18.9297ZM63.8333 22.375C61.2468 22.375 59.5809 25 59.5809 29.1426C59.5809 33.2715 61.2359 35.8828 63.8333 35.8828C66.4198 35.8828 68.0746 33.2715 68.0746 29.1426C68.0746 25 66.4198 22.375 63.8333 22.375ZM76.9082 19.2715V31.6172C76.9082 34.1465 78.1027 35.8008 80.2289 35.8008C82.3441 35.8008 83.5387 34.1465 83.5387 31.6172V19.2715H86.8485V32.0273C86.8485 36.375 84.273 39.3418 80.2289 39.3418C76.1738 39.3418 73.5983 36.375 73.5983 32.0273V19.2715H76.9082ZM92.6569 39H89.4898V19.2715H92.2513L99.6382 32.123H99.7264V19.2715H102.894V39H100.154L92.7555 26.0801H92.6569V39ZM105.535 19.2715H111.574C116.319 19.2715 119.114 22.7988 119.114 29.0605C119.114 35.3223 116.319 39 111.574 39H105.535V19.2715ZM108.845 22.6758V35.582H111.179C114.138 35.582 115.738 33.3398 115.738 29.0742C115.738 24.9453 114.094 22.6758 111.179 22.6758H108.845ZM131.728 35.582V39H121.251V19.2715H131.728V22.6758H124.561V27.4336H131.323V30.6055H124.561V35.582H131.728ZM137.427 22.498V28.7871H140.277C141.943 28.7871 142.918 27.5977 142.918 25.6426C142.918 23.7285 141.888 22.498 140.244 22.498H137.427ZM137.427 31.7812V39H134.117V19.2715H140.595C144.233 19.2715 146.316 21.6641 146.316 25.5605C146.316 28.0898 145.263 30.2773 143.444 31.166L146.776 39H143.027L140.079 31.7812H137.427ZM148.716 19.2715H154.36C157.33 19.2715 159.423 21.8691 159.423 25.6016C159.423 29.3477 157.308 31.959 154.338 31.959H150.689V39H148.716V19.2715ZM150.689 21.459V29.7715H153.845C156.103 29.7715 157.396 28.2266 157.396 25.6016C157.396 22.9902 156.113 21.459 153.845 21.459H150.689ZM163.664 39H161.692V19.2715H163.664V39ZM172.707 39H170.734V21.4863H165.747V19.2715H177.693V21.4863H172.707V39ZM185.299 39.3281C180.937 39.3281 178.175 35.377 178.175 29.1289C178.175 22.9355 180.97 18.9434 185.299 18.9434C188.741 18.9434 191.36 21.5547 191.864 25.4922H189.869C189.365 22.9082 187.557 21.2129 185.299 21.2129C182.208 21.2129 180.203 24.3301 180.203 29.1289C180.203 33.9688 182.187 37.0586 185.31 37.0586C187.634 37.0586 189.299 35.6641 189.869 33.2578H191.864C191.141 37.1543 188.795 39.3281 185.299 39.3281ZM206.824 39H204.851V30.0176H196.171V39H194.198V19.2715H196.171V27.8027H204.851V19.2715H206.824V39Z" fill="#251E04"/>
</g>
<defs>
<clipPath id="clip0_149_264">
<rect width="200" height="33" fill="white" transform="translate(7 13)"/>
</clipPath>
</defs>
</svg>
